<svg width="286" height="77" viewBox="0 0 286 77" fill="none" xmlns="http://www.w3.org/2000/svg">
<path d="M62.0281 1.54482L51.8759 0.0648193C51.5755 0.00561925 51.2752 0.124012 51.155 0.242412L46.8298 5.80722C46.5295 6.16242 46.4694 6.63602 46.5895 7.05042C46.7097 7.46482 46.3492 7.82003 45.9287 7.76083L42.3845 6.99122C41.8438 6.87282 41.2431 7.05043 40.8827 7.52403L26.8258 25.2841C26.5855 25.6393 26.1049 25.7577 25.6844 25.5801L20.338 23.212C19.8574 22.9752 19.3167 23.0344 18.8962 23.3304L16.193 25.1656C15.7725 25.4616 15.1718 25.5209 14.6912 25.2841L13.3696 24.6328C12.5286 24.2184 11.5074 24.6921 11.2671 25.5801L10.3059 29.7832C10.0656 30.7896 10.4861 31.7961 11.3872 32.3289L13.4297 33.5721L19.9775 37.5385L23.1614 39.4921C24.0624 40.0249 25.2038 39.9065 25.9848 39.2553L31.3312 34.6377C31.7517 34.2825 32.4125 34.1641 32.8931 34.4601L34.515 35.2889C35.0557 35.5849 35.7165 35.4665 36.137 35.0521L38.8402 32.5657C39.2607 32.1513 39.9215 32.0921 40.4021 32.3289L44.4269 34.1641C45.0277 34.4601 45.7485 34.2825 46.169 33.7497L48.0313 31.3817L62.1482 13.5624C62.809 12.7336 62.3885 11.4904 61.3072 11.2536L58.1835 10.5432C57.5227 10.4248 57.2223 9.59602 57.7029 9.12242L62.5687 3.14321C63.0493 2.43281 62.749 1.66322 62.0281 1.54482Z" fill="#8257E6"/>
<path d="M15.4716 37.4201C15.1712 37.2425 14.8708 37.5385 14.991 37.8345L16.4928 41.7417C16.6129 42.0377 16.6129 42.3337 16.5529 42.6297L15.2313 47.7209C15.1712 48.0761 15.2913 48.4313 15.5316 48.6089L19.3162 51.5097C19.6766 51.7465 20.1572 51.7465 20.4576 51.4505L24.4223 48.0169C24.6626 47.8393 24.963 47.7209 25.2033 47.6617L29.7087 47.1881C30.009 47.1289 30.1292 46.7145 29.8288 46.5369L15.4716 37.4201Z" fill="#8257E6"/>
<path d="M14.1497 50.5623C13.9094 50.3847 13.549 50.3255 13.2486 50.4439L10.0648 51.9831C9.88459 52.0423 9.76444 52.2199 9.64429 52.3975L2.85614 68.9143C2.85614 68.9735 2.85614 68.9735 2.85614 69.0327C2.91622 69.0919 2.97628 69.1511 3.09643 69.1511L4.65831 68.5591C4.71838 68.5591 4.77845 68.5591 4.83852 68.5591C4.89859 68.6183 4.95867 68.7367 4.89859 68.7959L0.0327439 76.6695C-0.0874005 76.8471 0.152894 77.0247 0.273038 76.8471L17.8742 59.4423C18.0544 59.2647 18.1145 59.0871 18.1746 58.8503L18.535 54.3511C18.535 54.0551 18.4148 53.8183 18.2346 53.6407L14.1497 50.5623Z" fill="#8257E6"/>
<line x1="121.022" y1="6.97656" x2="121.022" y2="65.0413" stroke="#29292E" stroke-width="4.52187"/>
<path d="M177.466 53.756V22.9895H188.242C191.976 22.9895 194.807 23.7079 196.737 25.1448C198.667 26.5676 199.632 28.6596 199.632 31.4207C199.632 32.928 199.245 34.2593 198.47 35.4144C197.695 36.5555 196.617 37.3937 195.237 37.929C196.815 38.3234 198.054 39.1194 198.956 40.3168C199.871 41.5142 200.329 42.9793 200.329 44.712C200.329 47.6703 199.385 49.9102 197.498 51.4316C195.61 52.953 192.919 53.7278 189.426 53.756H177.466ZM183.805 40.359V48.6634H189.236C190.729 48.6634 191.891 48.3113 192.722 47.6069C193.567 46.8885 193.99 45.9024 193.99 44.6486C193.99 41.8311 192.532 40.4013 189.616 40.359H183.805ZM183.805 35.8793H188.496C191.694 35.8229 193.293 34.548 193.293 32.0546C193.293 30.66 192.884 29.6598 192.067 29.054C191.264 28.4342 189.989 28.1243 188.242 28.1243H183.805V35.8793ZM211.444 48.6634H224.904V53.756H205.105V22.9895H211.444V48.6634ZM252.48 39.07C252.48 42.0988 251.945 44.7542 250.874 47.0364C249.804 49.3185 248.268 51.0794 246.268 52.3191C244.281 53.5588 241.999 54.1786 239.421 54.1786C236.872 54.1786 234.597 53.5658 232.596 52.3402C230.596 51.1146 229.046 49.3678 227.947 47.0998C226.849 44.8176 226.292 42.1974 226.278 39.2391V37.7177C226.278 34.6889 226.82 32.0264 227.905 29.7302C229.004 27.4199 230.546 25.652 232.533 24.4264C234.533 23.1867 236.815 22.5669 239.379 22.5669C241.943 22.5669 244.218 23.1867 246.204 24.4264C248.205 25.652 249.747 27.4199 250.832 29.7302C251.931 32.0264 252.48 34.6819 252.48 37.6965V39.07ZM246.056 37.6754C246.056 34.4494 245.479 31.9983 244.324 30.3219C243.169 28.6455 241.52 27.8073 239.379 27.8073C237.252 27.8073 235.611 28.6385 234.456 30.3007C233.3 31.949 232.716 34.372 232.702 37.5698V39.07C232.702 42.2115 233.279 44.6486 234.435 46.3813C235.59 48.114 237.252 48.9804 239.421 48.9804C241.549 48.9804 243.183 48.1493 244.324 46.487C245.465 44.8106 246.042 42.3735 246.056 39.1757V37.6754ZM281.429 49.8679C280.288 51.2344 278.675 52.298 276.591 53.0587C274.506 53.8053 272.195 54.1786 269.66 54.1786C266.997 54.1786 264.659 53.601 262.644 52.4459C260.644 51.2766 259.094 49.5862 257.995 47.3745C256.911 45.1628 256.354 42.5637 256.326 39.5772V37.4852C256.326 34.4142 256.84 31.7588 257.869 29.5189C258.911 27.265 260.404 25.5463 262.348 24.363C264.306 23.1656 266.596 22.5669 269.216 22.5669C272.864 22.5669 275.717 23.4403 277.774 25.1871C279.831 26.9198 281.049 29.4485 281.429 32.7731H275.259C274.978 31.0122 274.351 29.7232 273.379 28.9061C272.421 28.0891 271.097 27.6805 269.406 27.6805C267.251 27.6805 265.61 28.4905 264.483 30.1106C263.356 31.7306 262.785 34.1395 262.771 37.3373V39.3025C262.771 42.5285 263.384 44.9656 264.609 46.6138C265.835 48.262 267.631 49.0861 269.998 49.0861C272.378 49.0861 274.076 48.5789 275.09 47.5646V42.2608H269.322V37.5909H281.429V49.8679Z" fill="#996DFF"/>
</svg>
